<?xml version="1.0" encoding="utf-8"?>
<!-- Generator: Adobe Illustrator 25.0.0, SVG Export Plug-In . SVG Version: 6.00 Build 0)  -->
<svg version="1.1"
	 id="svg2" xmlns:cc="http://creativecommons.org/ns#" xmlns:dc="http://purl.org/dc/elements/1.1/" xmlns:rdf="http://www.w3.org/1999/02/22-rdf-syntax-ns#" xmlns:svg="http://www.w3.org/2000/svg"
	 xmlns="http://www.w3.org/2000/svg" xmlns:xlink="http://www.w3.org/1999/xlink" x="0px" y="0px" viewBox="0 0 219.1 47"
	 style="enable-background:new 0 0 219.1 47;" xml:space="preserve">
<style type="text/css">
	.st0{fill:#FFFFFF;}
	.st1{fill:#EC1C24;}
	.st2{fill-rule:evenodd;clip-rule:evenodd;fill:#FFFFFF;}
	.st3{fill-rule:evenodd;clip-rule:evenodd;fill:#EC1C24;}
</style>
<g>
	<path class="st0" d="M112.7,19.7c0,3.1-0.9,5.5-2.6,7c-1.4,1.2-3.2,1.8-5.4,1.8c-2.1,0-3.8-0.6-5.1-1.8c-1.6-1.5-2.4-3.8-2.4-7
		v-4.8h6.5v6.8c0,1.2,0.4,1.8,1.2,1.8c0.7,0,1-0.6,1-1.7V1.3h6.8V19.7z M90.2,21.3v-4c0-1.2-0.4-1.7-1.2-1.7c-0.8,0-1.2,0.6-1.2,1.7
		v4c0,1.2,0.4,1.7,1.2,1.7C89.7,23,90.2,22.4,90.2,21.3z M96.2,28.5H89c-2.2,0-4-0.6-5.4-1.8c-1.7-1.5-2.6-3.8-2.6-7v-0.3
		c0-3.1,0.9-5.5,2.6-7c1.4-1.2,3.2-1.8,5.4-1.8c-0.2,0,0.1,0.1,1,0.2V6.9c0-1.1-0.4-1.6-1.1-1.6s-1,0.5-1,1.6v3.2H81V9.4
		c0-2.9,0.6-5,1.8-6.2c1.2-1.3,3.1-1.9,5.7-1.9s4.5,0.5,5.7,1.6c1.4,1.2,2.1,3.3,2.1,6.2L96.2,28.5L96.2,28.5z M73.6,13.2V8
		c0-1.2-0.4-1.7-1.2-1.7c-0.8,0-1.2,0.6-1.2,1.7v5.2c0,1.2,0.4,1.7,1.2,1.7S73.6,14.3,73.6,13.2z M79.9,28.5h-6.5v-6.9
		c0-1.2-0.4-1.9-1.2-1.9c-0.7,0-1,0.6-1,1.7v7h-6.8V1.3h8c2.3,0,4.2,0.7,5.5,2.1C79.3,4.9,80,7,80,9.8v0.8c0,1.4-0.3,2.6-1,3.5
		s-1.5,1.5-2.7,1.6c2.4,1.3,3.6,3.9,3.6,7.8V28.5z"/>
	<path class="st1" d="M216,20.6c0,2.8-0.7,4.8-2.2,6c-1.3,1.1-3.2,1.6-5.8,1.6c-2.3,0-4-0.5-5.1-1.5c-1.3-1.2-1.9-3.1-1.9-5.7v-4.1
		h6.2v4.8c0,1,0.4,1.4,1.1,1.4c0.8,0,1.2-0.5,1.2-1.5v-3c0-1-0.2-1.6-0.7-1.8c-0.5-0.3-1.2-0.5-2-0.8c-1.9-0.2-3.3-0.7-4.2-1.5
		c-1-1-1.5-2.7-1.5-5c0-2.4,0.4-4.2,1.2-5.4c1.2-1.9,3.3-2.8,6.3-2.8c1.8,0,3.4,0.4,4.6,1.3c1.7,1.2,2.5,2.9,2.5,5.4v5.3h-6.2V8
		c0-1-0.3-1.5-1-1.5S207.4,7,207.4,8v5.3c0.1,0.5,0.6,0.7,1.5,0.7c1.8,0,3.4,0.4,4.6,1.3C215.1,16.4,216,18.2,216,20.6 M199.7,18
		c0,3.8-0.7,6.6-2.2,8.2c-1.2,1.4-3.1,2-5.5,2c-2.2,0-4-0.6-5.4-1.8c-1.7-1.5-2.6-3.8-2.6-6.9V10c0-3.1,0.9-5.4,2.6-6.9
		c1.4-1.2,3.2-1.8,5.4-1.8c2.3,0,4.1,0.7,5.4,2.1c1.4,1.5,2,3.6,2,6.4v5H193V7.7c0-1-0.4-1.5-1.1-1.5c-0.7,0-1.1,0.5-1.1,1.5v13.7
		c0,1.4,0.4,2,1.2,2s1.2-0.7,1.2-2.2v-4.4h6.5L199.7,18L199.7,18z M182.8,28.3h-7v-27h7V28.3z M174.6,28.3h-6.7V8.5
		c0-1.3-0.4-1.9-1.1-1.9c-0.6,0-0.9,0.6-0.9,1.9v19.7h-6.5V8.5c0-1.3-0.3-1.9-1-1.9c-0.6,0-0.9,0.6-0.9,1.9v19.7h-6.7v-27H170
		c3,0,4.6,2.3,4.6,7V28.3z M142.8,21.1V7.9c0-1.2-0.4-1.7-1.2-1.7s-1.2,0.6-1.2,1.7v13.2c0,1.2,0.4,1.7,1.2,1.7
		C142.4,22.9,142.8,22.3,142.8,21.1z M149.5,19.5c0,3.1-0.9,5.4-2.6,6.9c-1.4,1.2-3.2,1.8-5.4,1.8s-4-0.6-5.4-1.8
		c-1.7-1.5-2.6-3.8-2.6-6.9V10c0-3.1,0.9-5.4,2.6-6.9c1.4-1.2,3.2-1.8,5.4-1.8s4,0.6,5.4,1.8c1.7,1.5,2.6,3.8,2.6,6.9V19.5z
		 M132.5,18c0,3.8-0.7,6.6-2.2,8.2c-1.2,1.4-3.1,2-5.5,2c-2.2,0-4-0.6-5.4-1.8c-1.7-1.5-2.6-3.8-2.6-6.9V10c0-3.1,0.9-5.4,2.6-6.9
		c1.4-1.2,3.2-1.8,5.4-1.8c2.3,0,4.1,0.7,5.4,2.1c1.4,1.5,2,3.6,2,6.4v5h-6.5V7.7c0-1-0.4-1.5-1.1-1.5s-1.1,0.5-1.1,1.5v13.7
		c0,1.4,0.4,2,1.2,2c0.8,0,1.2-0.7,1.2-2.2v-4.4h6.5V18H132.5z"/>
</g>
<g>
	<path class="st0" d="M73.2,39.3c-0.3-0.1-0.6-0.2-1-0.3c0.2-0.1,0.4-0.1,0.6-0.2c0.3-0.1,0.5-0.2,0.7-0.4c0.6-0.4,0.9-0.8,0.9-1.4
		c0-0.3-0.1-0.6-0.3-0.9c-0.2-0.3-0.4-0.5-0.8-0.7c-0.3-0.2-0.6-0.3-1.1-0.4c-0.4-0.1-0.9-0.1-1.4-0.1h-6.2v0.5H65
		c0.5,0,0.8,0.1,1,0.3s0.3,0.6,0.3,1.1v4.8c0,0.5-0.1,0.8-0.3,1c-0.2,0.2-0.6,0.3-1,0.3h-0.4v0.5h6.2c0.8,0,1.5-0.1,2-0.3
		c0.6-0.2,1-0.4,1.3-0.8c0.3-0.3,0.5-0.7,0.5-1.2C74.7,40.4,74.2,39.7,73.2,39.3z M72,39.9c0.3,0.3,0.5,0.7,0.5,1.2
		c0,0.6-0.2,1.1-0.6,1.4c-0.4,0.3-1,0.5-1.7,0.5h-1.7v-3.8h1.1c0.7,0,1.2,0,1.6,0.1C71.4,39.5,71.7,39.6,72,39.9z M70.1,38.8h-1.7
		v-3.4h2c0.6,0,1.1,0.1,1.4,0.4c0.3,0.3,0.4,0.7,0.4,1.2C72.2,38.2,71.5,38.8,70.1,38.8z"/>
	<path class="st0" d="M82.7,35.4h0.7c0.3,0,0.6,0.1,0.8,0.2c0.2,0.1,0.3,0.3,0.3,0.5s-0.1,0.4-0.3,0.7l-1.7,2.3l-2-2.7
		C80.1,36.1,80,36,80,36c0-0.1,0-0.1,0-0.2c0-0.1,0-0.2,0.1-0.3s0.3-0.1,0.5-0.1h0.7v-0.5h-5.6v0.5H76c0.5,0,0.8,0.1,1.1,0.2
		c0.3,0.2,0.6,0.4,0.9,0.9l2.5,3.4v1.7c0,0.5-0.1,0.8-0.3,1c-0.2,0.2-0.6,0.3-1,0.3h-0.7v0.5h6.1V43h-0.7c-0.5,0-0.8-0.1-1-0.3
		s-0.3-0.6-0.3-1v-2l2.1-2.7c0.2-0.2,0.4-0.5,0.6-0.7s0.4-0.3,0.6-0.5c0.2-0.1,0.4-0.2,0.6-0.3s0.5-0.1,0.7-0.2h0.1v-0.4h-4.5
		L82.7,35.4L82.7,35.4z"/>
	<path class="st0" d="M100.5,39.4c-0.3-0.3-0.6-0.5-1-0.6c-0.4-0.2-0.9-0.3-1.7-0.5L97,38.1c0,0-0.1,0-0.3-0.1
		c-0.5-0.1-0.9-0.2-1.2-0.3c-0.3-0.1-0.5-0.2-0.7-0.3s-0.3-0.2-0.4-0.3c-0.2-0.2-0.3-0.4-0.3-0.6c0-0.1,0-0.3,0.1-0.4
		c0.1-0.1,0.2-0.3,0.3-0.4c0.2-0.2,0.4-0.3,0.6-0.4c0.2-0.1,0.5-0.1,0.8-0.1c0.4,0,0.9,0.1,1.3,0.2c0.4,0.1,0.8,0.3,1.1,0.5
		c0.3,0.2,0.6,0.4,0.8,0.7c0.3,0.4,0.6,0.9,0.8,1.6v0.1h0.4v-3.1h-0.4v0.1c-0.2,0.6-0.5,0.6-0.5,0.6c-0.1,0-0.2,0-0.6-0.2
		c-1-0.5-1.9-0.8-2.9-0.8c-0.6,0-1.2,0.1-1.7,0.3s-0.9,0.5-1.2,0.9c-0.3,0.4-0.4,0.8-0.4,1.3c0,0.4,0.1,0.8,0.4,1.1
		c0.2,0.2,0.4,0.4,0.6,0.6c0.2,0.2,0.6,0.3,1,0.5c0.4,0.1,1,0.3,1.9,0.6l0.6,0.2c0.5,0.1,0.9,0.2,1.1,0.3c0.3,0.1,0.5,0.2,0.7,0.3
		s0.3,0.2,0.4,0.3c0.2,0.2,0.3,0.5,0.3,0.7c0,0.3-0.1,0.5-0.2,0.7c-0.2,0.2-0.4,0.4-0.7,0.5c-0.6,0.3-1.5,0.2-2.3,0
		c-0.5-0.1-0.9-0.4-1.3-0.6c-0.4-0.3-0.8-0.6-1-0.9c-0.4-0.5-0.7-1.1-0.8-1.8v-0.1h-0.4v4.1h0.4v-0.1c0.1-0.2,0.2-0.4,0.3-0.6
		c0.3-0.2,0.6-0.3,1.1-0.1c0.2,0,0.4,0.1,0.7,0.3c0.5,0.2,0.9,0.4,1.3,0.4c0.3,0.1,0.7,0.1,1.1,0.1c0.6,0,1.1-0.1,1.5-0.2
		c0.4-0.2,0.8-0.4,1.1-0.7c0.2-0.2,0.4-0.5,0.5-0.8s0.2-0.6,0.2-0.9c0-0.3-0.1-0.6-0.2-0.9C100.9,39.8,100.8,39.6,100.5,39.4z"/>
	<path class="st0" d="M111.4,42.9c-0.1-0.1-0.3-0.2-0.4-0.3s-0.2-0.3-0.3-0.5l-3.4-7.3h-0.4l-2.7,6c-0.4,0.9-0.8,1.5-1.2,1.8
		c-0.2,0.1-0.3,0.2-0.5,0.3c-0.1,0.1-0.3,0.1-0.6,0.1h-0.1v0.5h3.6V43h-0.1c-0.1,0-0.3,0-0.3,0c-0.1,0-0.2-0.1-0.3-0.1
		c-0.1-0.1-0.3-0.2-0.3-0.4c-0.1-0.2-0.1-0.3-0.1-0.5s0-0.4,0.1-0.6l0.2-0.5h3.3l0.1,0.2c0,0,0,0.1,0.1,0.2c0,0.1,0,0.1,0.1,0.1
		c0.2,0.4,0.3,0.7,0.4,0.8s0.1,0.3,0.1,0.4c0,0.1,0,0.2-0.2,0.3c-0.1,0.1-0.3,0.1-0.6,0.1h-0.8v0.5h5.1V43h-0.3
		C111.7,43,111.5,42.9,111.4,42.9z M104.9,40.4l1.4-3.3l1.5,3.3H104.9z"/>
	<path class="st0" d="M120.2,35.4L120.2,35.4c0.4,0,0.6,0,0.7,0.1c0.1,0,0.3,0.1,0.4,0.2c0.3,0.2,0.5,0.4,0.6,0.7s0.2,0.7,0.2,1.1
		v3.3l-5.5-5.7l0,0h-3.5v0.5h0.2c0.3,0,0.6,0.1,0.8,0.2c0.2,0.1,0.4,0.2,0.5,0.4s0.2,0.4,0.2,0.7v4.7c0,0.4-0.1,0.7-0.2,0.9
		s-0.3,0.4-0.6,0.5c-0.3,0.1-0.6,0.2-1,0.2h-0.1v0.5h4.6V43h-0.1c-0.3,0-0.5,0-0.7-0.1c-0.3,0-0.5-0.1-0.7-0.2
		c-0.2-0.1-0.4-0.3-0.5-0.6s-0.2-0.6-0.2-1.1v-4.6l6.9,7.1l0,0h0.4v-6c0-0.7,0.1-1.2,0.4-1.6c0.3-0.4,0.7-0.5,1.3-0.5h0.2v-0.5h-4.4
		L120.2,35.4L120.2,35.4z"/>
	<path class="st0" d="M127.4,35.4h0.8c0.9,0,1.4,0.5,1.4,1.4v4.9c0,0.3-0.1,0.6-0.2,0.8c-0.1,0.2-0.3,0.4-0.5,0.5s-0.5,0.2-0.9,0.2
		s-0.8-0.1-1-0.2c-0.2-0.1-0.3-0.2-0.3-0.2s0,0,0.2-0.1c0.6-0.2,0.9-0.6,0.9-1.1c0-0.3-0.1-0.6-0.3-0.8s-0.5-0.3-0.8-0.3
		s-0.6,0.1-0.9,0.4c-0.2,0.2-0.4,0.5-0.4,0.9c0,0.2,0.1,0.4,0.2,0.6c0.1,0.2,0.2,0.4,0.4,0.6c0.3,0.3,0.6,0.5,1,0.6s0.8,0.2,1.3,0.2
		s1-0.1,1.5-0.2c0.5-0.2,0.8-0.4,1.2-0.7c0.5-0.5,0.7-1.1,0.7-1.9v-4c0-0.9,0.5-1.4,1.4-1.4h0.4v-0.5h-6L127.4,35.4L127.4,35.4z"/>
	<path class="st0" d="M143.4,42.9c-0.1-0.1-0.3-0.2-0.4-0.3c-0.1-0.1-0.2-0.3-0.3-0.5l-3.4-7.3h-0.4l-2.7,6
		c-0.4,0.9-0.8,1.5-1.2,1.8c-0.2,0.1-0.3,0.2-0.5,0.3c-0.1,0.1-0.3,0.1-0.6,0.1h-0.1v0.5h3.6V43h-0.1c-0.1,0-0.3,0-0.3,0
		c-0.1,0-0.2-0.1-0.3-0.1c-0.1-0.1-0.3-0.2-0.3-0.4c-0.1-0.2-0.1-0.3-0.1-0.5s0-0.4,0.1-0.6l0.2-0.5h3.3l0.1,0.2c0,0,0,0.1,0.1,0.1
		c0,0.1,0,0.1,0.1,0.1c0.2,0.4,0.3,0.7,0.4,0.8c0.1,0.1,0.1,0.3,0.1,0.4c0,0.1,0,0.2-0.2,0.3c-0.1,0.1-0.3,0.1-0.6,0.1h-0.8v0.5h5.1
		V43h-0.3C143.7,43,143.5,42.9,143.4,42.9z M136.9,40.4l1.4-3.3l1.5,3.3H136.9z"/>
	<path class="st0" d="M150,35.4h0.7c0.3,0,0.6,0.1,0.8,0.2c0.2,0.1,0.3,0.3,0.3,0.5s-0.1,0.4-0.3,0.7l-1.7,2.3l-2-2.7
		c-0.2-0.3-0.3-0.5-0.3-0.5c0-0.1,0-0.1,0-0.2c0-0.1,0-0.2,0.1-0.3s0.3-0.1,0.5-0.1h0.7v-0.5h-5.6v0.5h0.3c0.5,0,0.8,0.1,1.1,0.2
		c0.3,0.2,0.6,0.5,0.9,0.9l2.5,3.4v1.7c0,0.5-0.1,0.8-0.3,1s-0.6,0.3-1,0.3H146v0.5h6.1V43h-0.7c-0.5,0-0.8-0.1-1-0.3
		s-0.3-0.6-0.3-1v-2l2.1-2.7c0.2-0.2,0.4-0.5,0.6-0.7c0.2-0.2,0.4-0.3,0.6-0.5c0.2-0.1,0.4-0.2,0.6-0.3c0.2-0.1,0.5-0.1,0.7-0.2h0.1
		v-0.4H150V35.4z"/>
	<path class="st0" d="M165.5,39.9h0.8c0.9,0,1.4,0.5,1.4,1.4v0.4c0,0.4-0.2,0.7-0.5,1c-0.2,0.1-0.5,0.2-0.8,0.3
		c-0.6,0.1-1.2,0.2-1.7,0c-0.2-0.1-0.4-0.1-0.6-0.2c-0.2-0.1-0.4-0.2-0.5-0.4c-0.1-0.1-0.3-0.3-0.4-0.5c-0.1-0.1-0.1-0.3-0.2-0.5
		c-0.1-0.2-0.1-0.4-0.1-0.6c0-0.2-0.1-0.4-0.1-0.7s0-0.5,0-0.8c0-0.9,0.1-1.6,0.2-2.2c0.1-0.6,0.4-1,0.7-1.3
		c0.2-0.2,0.4-0.3,0.7-0.4c0.3-0.1,0.6-0.2,0.9-0.2c0.6,0,1.2,0.2,1.8,0.5s1,0.8,1.4,1.3c0.1,0.2,0.3,0.4,0.4,0.7
		c0.1,0.2,0.2,0.6,0.4,1v0.1h0.4l-0.1-3.8h-0.4v0.1c-0.2,0.2-0.3,0.4-0.4,0.5c-0.1,0.1-0.2,0.1-0.3,0.1s-0.3,0-0.7-0.3
		c-0.5-0.2-0.9-0.4-1.3-0.5c-0.8-0.2-1.7-0.2-2.5,0c-0.4,0.1-0.8,0.3-1.2,0.5s-0.7,0.5-1,0.8s-0.5,0.6-0.7,0.9
		c-0.2,0.3-0.3,0.7-0.4,1c-0.1,0.4-0.1,0.7-0.1,1.1c0,0.6,0.1,1.2,0.4,1.7c0.3,0.5,0.6,1,1.1,1.4s1,0.7,1.6,0.9s1.3,0.3,2,0.3
		c0.4,0,0.7,0,1-0.1s0.6-0.2,1-0.3c0.3-0.1,0.5-0.2,0.6-0.2c0.3-0.1,0.7-0.1,0.9,0c0.1,0,0.3,0.2,0.4,0.3l0,0h0.4v-2.1
		c0-0.5,0.1-0.8,0.3-1s0.6-0.3,1-0.3h0.3v-0.5h-5.9v0.6H165.5z"/>
	<path class="st0" d="M179.6,35.4h0.1c0.3,0,0.6,0,0.7,0.1c0.2,0,0.3,0.1,0.5,0.2c0.5,0.3,0.8,0.9,0.8,1.8v3c0,0.8-0.2,1.5-0.7,1.9
		c-0.2,0.2-0.6,0.4-1,0.6c-0.4,0.1-0.9,0.2-1.4,0.2c-0.6,0-1-0.1-1.4-0.3s-0.7-0.4-0.9-0.7S176,41.5,176,41v-4.2
		c0-0.5,0.1-0.8,0.3-1s0.6-0.3,1-0.3h0.8V35h-6v0.5h0.5c0.9,0,1.4,0.5,1.4,1.4V41c0,0.9,0.3,1.6,1,2c0.4,0.2,0.8,0.4,1.3,0.6
		c0.5,0.1,1.1,0.2,1.8,0.2c0.9,0,1.7-0.1,2.3-0.4c0.3-0.1,0.6-0.3,0.9-0.6c0.5-0.5,0.8-1.2,0.8-2.1v-3.3c0-0.4,0.1-0.7,0.2-0.9
		c0.1-0.3,0.3-0.5,0.5-0.6c0.1-0.1,0.3-0.2,0.4-0.2c0.1,0,0.3-0.1,0.6-0.1h0.1v-0.5h-4.3L179.6,35.4L179.6,35.4z"/>
	<path class="st0" d="M192.1,35.1c-0.2,0-0.4-0.1-0.7-0.1s-0.6-0.1-0.9-0.1c-0.3,0-0.7,0-1,0h-5.1v0.5h0.4c0.9,0,1.4,0.5,1.4,1.4
		v4.8c0,0.9-0.5,1.4-1.4,1.4h-0.4v0.5h5.7V43h-0.5c-0.9,0-1.4-0.5-1.4-1.4v-1.8h2.1c0.6,0,1.1-0.1,1.6-0.2c0.5-0.1,0.9-0.3,1.2-0.5
		s0.6-0.5,0.8-0.8s0.3-0.7,0.3-1c0-0.6-0.2-1-0.6-1.4C193.3,35.5,192.7,35.3,192.1,35.1z M192,37.3c0,0.7-0.2,1.2-0.5,1.5
		c-0.4,0.3-0.9,0.5-1.7,0.5h-1.5v-3.9h1.5c0.4,0,0.7,0,0.9,0.1c0.2,0,0.5,0.1,0.6,0.2C191.7,36,192,36.5,192,37.3z"/>
	<path class="st0" d="M195.1,39.4h0.4v-0.1c0.1-0.4,0.1-0.8,0.2-1c0.2-0.6,0.4-1.1,0.7-1.6c0.6-0.9,1.4-1.3,2.3-1.3h0.4v6.2
		c0,0.9-0.5,1.4-1.4,1.4h-1.4v0.5h7.5V43h-1.4c-0.9,0-1.4-0.5-1.4-1.4v-6.2h0.3c0.9,0,1.7,0.4,2.3,1.2c0.5,0.7,0.8,1.6,0.9,2.6v0.1
		h0.4v-4.4h-10v4.5H195.1z"/>
	<path class="st0" d="M215.2,43c-0.2,0-0.4,0-0.5-0.1s-0.3-0.2-0.4-0.3c-0.1-0.1-0.2-0.3-0.3-0.5l-3.4-7.3h-0.4l-2.7,6
		c-0.4,0.9-0.8,1.5-1.2,1.8c-0.2,0.1-0.3,0.2-0.5,0.3c-0.1,0.1-0.3,0.1-0.6,0.1h-0.1v0.5h3.6V43h-0.1c-0.1,0-0.3,0-0.3,0
		c-0.1,0-0.2-0.1-0.3-0.1c-0.1-0.1-0.3-0.2-0.3-0.4c-0.1-0.2-0.1-0.3-0.1-0.5s0-0.4,0.1-0.6l0.2-0.5h3.3l0.1,0.2c0,0,0,0.1,0.1,0.1
		c0,0.1,0,0.1,0.1,0.1c0.2,0.4,0.3,0.7,0.4,0.8c0.1,0.1,0.1,0.3,0.1,0.4c0,0.1,0,0.2-0.2,0.3c-0.1,0.1-0.3,0.1-0.6,0.1h-0.8v0.5h5.1
		V43H215.2z M208.2,40.4l1.4-3.3l1.5,3.3H208.2z"/>
</g>
<g>
	<rect x="64.4" y="30.9" class="st1" width="50.1" height="0.7"/>
</g>
<g>
	<rect x="114.6" y="30.9" class="st0" width="101.4" height="0.7"/>
</g>
<g>
	<g>
		<path class="st2" d="M3.9,5.2c2-1.4,4.5-1,5.5,0.7c1,1.8,0.1,4.3-1.9,5.6c-2,1.4-4.5,1-5.5-0.7C1,9.1,1.9,6.6,3.9,5.2 M3.7,5.1
			C6.1,3.6,9,3.9,10.1,5.7c1.1,1.8,0,4.5-2.4,5.9c-2.4,1.5-5.3,1.2-6.4-0.6C0.2,9.2,1.3,6.6,3.7,5.1z"/>
	</g>
	<g>
		<path class="st2" d="M4.9,4c2.7-1.8,5.9-1.3,7.2,1c1.3,2.3,0.1,5.6-2.5,7.4c-2.7,1.8-5.9,1.3-7.2-1C1.1,9,2.2,5.7,4.9,4 M4.6,3.8
			c3.2-1.9,6.9-1.6,8.4,0.8c1.4,2.4,0,5.9-3.2,7.8c-3.2,1.9-6.9,1.6-8.4-0.8C0,9.2,1.4,5.8,4.6,3.8z"/>
	</g>
	<g>
		<path class="st3" d="M16.7,8.3C27.3,1.3,39.9,3,44.9,12c5,9,0.6,22-10,28.9c-10.5,6.9-23.2,5.3-28.2-3.7
			C1.7,28.2,6.2,15.2,16.7,8.3 M15.7,7.8c12.4-7.5,27.1-6.1,32.7,3.2c5.6,9.3,0.1,22.9-12.3,30.5C23.6,49,8.9,47.6,3.3,38.3
			C-2.3,29,3.2,15.3,15.7,7.8z"/>
	</g>
	<g>
		<path class="st1" d="M45.1,26.4c0,4.9-1,8.4-2.9,10.5c-1.6,1.7-3.9,2.6-7,2.6c-2.8,0-5.1-0.8-6.9-2.3c-2.2-1.9-3.3-4.8-3.3-8.8
			V16.2c0-4,1.1-6.9,3.3-8.8C30.1,5.8,32.4,5,35.2,5c3,0,5.3,0.9,7,2.7c1.7,1.9,2.6,4.6,2.6,8.2v6.4h-8.3v-9.1
			c0-1.3-0.5-1.9-1.4-1.9c-0.9,0-1.4,0.6-1.4,1.9v17.5c0,1.7,0.5,2.6,1.5,2.6c1,0,1.5-0.9,1.5-2.8v-5.6h8.3V26.4z"/>
	</g>
	<g>
		<path class="st0" d="M16.1,20.1v-6.6c0-1.5-0.5-2.2-1.5-2.2c-1,0-1.5,0.7-1.5,2.2v6.6c0,1.5,0.5,2.2,1.5,2.2
			C15.5,22.3,16.1,21.5,16.1,20.1 M4.4,12.4V5h4.2c0.3,0.2,0.6,0.6,0.8,0.9c1,1.8,0.1,4.3-1.9,5.6C6.5,12.2,5.4,12.5,4.4,12.4z
			 M24.1,39.5h-8.3v-8.7c0-1.6-0.5-2.4-1.5-2.4c-0.9,0-1.3,0.7-1.3,2.2v8.9H4.4V12.6c1.1,0,2.2-0.3,3.3-0.9c2.4-1.5,3.5-4.1,2.4-5.9
			C9.9,5.4,9.7,5.2,9.5,5h5c3,0,5.3,0.9,7,2.7c1.7,1.9,2.6,4.6,2.6,8.2v1c0,1.8-0.4,3.3-1.3,4.5c-0.8,1.2-2,1.9-3.4,2
			c3.1,1.7,4.6,5,4.6,9.9V39.5z"/>
	</g>
	<g>
		<path class="st1" d="M4.4,12.6v-0.2c1,0.1,2.1-0.1,3.1-0.8c2-1.4,2.9-3.9,1.9-5.6C9.2,5.5,8.9,5.2,8.6,5h0.9
			c0.2,0.2,0.5,0.5,0.6,0.7c1.1,1.8,0,4.5-2.4,5.9C6.6,12.3,5.4,12.6,4.4,12.6"/>
	</g>
	<g>
		<path class="st1" d="M4.4,13.5v-0.5c1.5,0.6,3.5,0.4,5.2-0.8c2.7-1.8,3.8-5,2.6-7.3h1c1.1,2.4-0.3,5.6-3.3,7.4
			C8,13.5,6,13.9,4.4,13.5"/>
	</g>
	<g>
		<path class="st0" d="M3.4,7.5C3.4,7.5,3.4,7.5,3.4,7.5c-0.2,0-0.2-0.1-0.3-0.2L3.1,6L1.9,5.7c-0.1,0-0.2-0.1-0.2-0.2
			c0-0.1,0-0.2,0.1-0.3L3,4.7L2.9,3.5c0-0.1,0.1-0.2,0.2-0.3c0.1,0,0.2,0,0.3,0.1l0.7,0.9l1.1-0.5c0.1,0,0.2,0,0.3,0.1
			c0.1,0.1,0.1,0.2,0,0.3L4.9,5.2l0.8,1c0.1,0.1,0.1,0.2,0,0.3C5.7,6.6,5.6,6.6,5.4,6.6L4.2,6.3l-0.6,1C3.6,7.4,3.5,7.5,3.4,7.5z
			 M2.7,5.4l0.7,0.2c0.1,0,0.2,0.1,0.2,0.2l0,0.5l0.3-0.5C4,5.8,4.1,5.7,4.2,5.8l0.7,0.2L4.4,5.4c-0.1-0.1-0.1-0.2,0-0.3l0.3-0.6
			L4.2,4.8c-0.1,0-0.2,0-0.3-0.1L3.5,4.2l0,0.6c0,0.1-0.1,0.2-0.1,0.2L2.7,5.4z"/>
	</g>
	<g>
		<polygon class="st3" points="3.2,3.4 4,4.5 5.3,3.9 4.6,5.2 5.5,6.4 4.1,6 3.4,7.2 3.3,5.8 1.9,5.5 3.3,4.9 		"/>
	</g>
	<g>
		<path class="st0" d="M3.8,3C3.8,3,3.7,3,3.8,3C3.7,3,3.6,2.9,3.6,2.8l0-0.7L3.1,1.9C3,1.9,3,1.8,3,1.8c0-0.1,0-0.1,0.1-0.1
			l0.6-0.2l0-0.6c0-0.1,0-0.1,0.1-0.1c0.1,0,0.1,0,0.1,0.1l0.3,0.5l0.6-0.2c0.1,0,0.1,0,0.1,0.1c0,0,0,0.1,0,0.2L4.7,2L5,2.5
			c0,0.1,0,0.1,0,0.2c0,0-0.1,0.1-0.2,0L4.3,2.5L3.9,2.9C3.8,3,3.8,3,3.8,3z M3.5,1.8L3.9,2C3.9,2,4,2.1,3.9,2.1l0,0.3l0.2-0.2
			c0,0,0.1-0.1,0.2,0l0.3,0.1L4.4,2c0,0,0-0.1,0-0.1l0.2-0.3L4.3,1.6c-0.1,0-0.1,0-0.1-0.1L4,1.3l0,0.3c0,0.1,0,0.1-0.1,0.1L3.5,1.8
			z"/>
	</g>
	<g>
		<polygon class="st3" points="3.8,2.9 4.2,2.3 4.9,2.6 4.5,1.9 5,1.3 4.2,1.5 3.9,0.9 3.8,1.6 3.1,1.8 3.8,2.1 		"/>
	</g>
	<g>
		<path class="st3" d="M52.9,12h4.4c1.5,9.3-3.5,20-14.2,27.3c-0.7,0.5-1.5,0.9-2.2,1.4c-2.7,1.7,3.1-2.1,3.1,5.5H24.6
			C40,43.9,56.7,29,52.9,12"/>
	</g>
</g>
</svg>
